<svg width="872" height="148" viewBox="0 0 872 148" fill="none" xmlns="http://www.w3.org/2000/svg">
<path d="M595.187 133.542C589.081 133.542 583.276 132.596 577.772 130.704C572.268 128.812 567.796 126.189 564.356 122.835L567.839 117.933C571.193 121.029 575.192 123.437 579.836 125.157C584.566 126.877 589.64 127.737 595.058 127.737C604.088 127.737 610.71 125.63 614.924 121.416C619.224 117.202 621.374 110.58 621.374 101.55V82.845L622.664 72.783L621.632 62.721V40.662H627.824V100.776C627.824 112.042 625.072 120.298 619.568 125.544C614.15 130.876 606.023 133.542 595.187 133.542ZM593.381 105.549C587.017 105.549 581.298 104.173 576.224 101.421C571.236 98.583 567.237 94.713 564.227 89.811C561.303 84.823 559.841 79.147 559.841 72.783C559.841 66.333 561.303 60.657 564.227 55.755C567.237 50.853 571.236 47.026 576.224 44.274C581.298 41.522 587.017 40.146 593.381 40.146C599.487 40.146 604.948 41.479 609.764 44.145C614.666 46.725 618.536 50.466 621.374 55.368C624.212 60.184 625.631 65.989 625.631 72.783C625.631 79.491 624.212 85.296 621.374 90.198C618.536 95.1 614.666 98.884 609.764 101.55C604.948 104.216 599.487 105.549 593.381 105.549ZM593.897 99.744C599.315 99.744 604.088 98.626 608.216 96.39C612.344 94.068 615.569 90.886 617.891 86.844C620.299 82.716 621.503 78.029 621.503 72.783C621.503 67.451 620.299 62.764 617.891 58.722C615.569 54.68 612.344 51.541 608.216 49.305C604.088 47.069 599.315 45.951 593.897 45.951C588.651 45.951 583.921 47.069 579.707 49.305C575.579 51.541 572.311 54.68 569.903 58.722C567.581 62.764 566.42 67.451 566.42 72.783C566.42 78.029 567.581 82.716 569.903 86.844C572.311 90.886 575.579 94.068 579.707 96.39C583.921 98.626 588.651 99.744 593.897 99.744Z" fill="white"/>
<path d="M506.842 40.146C512.346 40.146 517.119 41.221 521.161 43.371C525.289 45.435 528.471 48.617 530.707 52.917C533.029 57.131 534.19 62.377 534.19 68.655V108H527.74V69.171C527.74 61.603 525.805 55.841 521.935 51.885C518.151 47.929 512.819 45.951 505.939 45.951C500.693 45.951 496.135 47.026 492.265 49.176C488.395 51.326 485.428 54.336 483.364 58.206C481.386 62.076 480.397 66.72 480.397 72.138V108H473.947V40.662H480.139V59.367L479.236 57.303C481.3 51.971 484.697 47.8 489.427 44.79C494.157 41.694 499.962 40.146 506.842 40.146Z" fill="white"/>
<path d="M433.861 108V40.6621H440.311V108H433.861Z" fill="white"/>
<path d="M382.836 108.516C377.246 108.516 372 107.699 367.098 106.065C362.282 104.431 358.541 102.367 355.875 99.873L358.842 94.713C361.422 96.949 364.862 98.884 369.162 100.518C373.462 102.066 378.106 102.84 383.094 102.84C390.146 102.84 395.22 101.679 398.316 99.357C401.412 97.035 402.96 93.982 402.96 90.198C402.96 87.446 402.143 85.296 400.509 83.748C398.961 82.114 396.854 80.867 394.188 80.007C391.522 79.147 388.598 78.459 385.416 77.943C382.234 77.341 379.052 76.696 375.87 76.008C372.688 75.32 369.764 74.331 367.098 73.041C364.432 71.751 362.282 69.988 360.648 67.752C359.1 65.43 358.326 62.377 358.326 58.593C358.326 55.153 359.272 52.057 361.164 49.305C363.056 46.553 365.894 44.36 369.678 42.726C373.462 41.006 378.192 40.146 383.868 40.146C388.082 40.146 392.296 40.748 396.51 41.952C400.81 43.156 404.293 44.747 406.959 46.725L403.992 51.885C401.154 49.735 397.972 48.187 394.446 47.241C390.92 46.295 387.351 45.822 383.739 45.822C377.203 45.822 372.387 47.026 369.291 49.434C366.281 51.842 364.776 54.852 364.776 58.464C364.776 61.302 365.55 63.581 367.098 65.301C368.732 66.935 370.882 68.225 373.548 69.171C376.214 70.031 379.138 70.762 382.32 71.364C385.502 71.88 388.684 72.482 391.866 73.17C395.048 73.858 397.972 74.847 400.638 76.137C403.304 77.341 405.411 79.061 406.959 81.297C408.593 83.447 409.41 86.371 409.41 90.069C409.41 93.767 408.378 96.992 406.314 99.744C404.336 102.496 401.369 104.646 397.413 106.194C393.457 107.742 388.598 108.516 382.836 108.516Z" fill="white"/>
<path d="M305.455 40.146C310.959 40.146 315.732 41.221 319.774 43.371C323.902 45.435 327.084 48.617 329.32 52.917C331.642 57.131 332.803 62.377 332.803 68.655V108H326.353V69.171C326.353 61.603 324.418 55.841 320.548 51.885C316.764 47.929 311.432 45.951 304.552 45.951C299.306 45.951 294.748 47.026 290.878 49.176C287.008 51.326 284.041 54.336 281.977 58.206C279.999 62.076 279.01 66.72 279.01 72.138V108H272.56V40.662H278.752V59.367L277.849 57.303C279.913 51.971 283.31 47.8 288.04 44.79C292.77 41.694 298.575 40.146 305.455 40.146Z" fill="white"/>
<path d="M216.487 108.516C209.693 108.516 203.673 107.054 198.427 104.13C193.267 101.206 189.182 97.164 186.172 92.004C183.248 86.844 181.786 80.953 181.786 74.331C181.786 67.623 183.162 61.732 185.914 56.658C188.752 51.498 192.622 47.456 197.524 44.532C202.426 41.608 207.93 40.146 214.036 40.146C220.142 40.146 225.603 41.565 230.419 44.403C235.321 47.241 239.148 51.24 241.9 56.4C244.738 61.474 246.157 67.365 246.157 74.073C246.157 74.331 246.114 74.632 246.028 74.976C246.028 75.234 246.028 75.535 246.028 75.879H186.559V70.848H242.545L239.965 73.299C240.051 68.053 238.933 63.366 236.611 59.238C234.375 55.024 231.322 51.756 227.452 49.434C223.582 47.026 219.11 45.822 214.036 45.822C209.048 45.822 204.576 47.026 200.62 49.434C196.75 51.756 193.697 55.024 191.461 59.238C189.225 63.366 188.107 68.096 188.107 73.428V74.589C188.107 80.093 189.311 84.995 191.719 89.295C194.213 93.509 197.61 96.82 201.91 99.228C206.21 101.55 211.112 102.711 216.616 102.711C220.916 102.711 224.915 101.937 228.613 100.389C232.397 98.841 235.579 96.476 238.159 93.294L241.9 97.551C238.976 101.163 235.278 103.915 230.806 105.807C226.42 107.613 221.647 108.516 216.487 108.516Z" fill="white"/>
<path d="M138.114 108.516C132.524 108.516 127.278 107.699 122.376 106.065C117.56 104.431 113.819 102.367 111.153 99.873L114.12 94.713C116.7 96.949 120.14 98.884 124.44 100.518C128.74 102.066 133.384 102.84 138.372 102.84C145.424 102.84 150.498 101.679 153.594 99.357C156.69 97.035 158.238 93.982 158.238 90.198C158.238 87.446 157.421 85.296 155.787 83.748C154.239 82.114 152.132 80.867 149.466 80.007C146.8 79.147 143.876 78.459 140.694 77.943C137.512 77.341 134.33 76.696 131.148 76.008C127.966 75.32 125.042 74.331 122.376 73.041C119.71 71.751 117.56 69.988 115.926 67.752C114.378 65.43 113.604 62.377 113.604 58.593C113.604 55.153 114.55 52.057 116.442 49.305C118.334 46.553 121.172 44.36 124.956 42.726C128.74 41.006 133.47 40.146 139.146 40.146C143.36 40.146 147.574 40.748 151.788 41.952C156.088 43.156 159.571 44.747 162.237 46.725L159.27 51.885C156.432 49.735 153.25 48.187 149.724 47.241C146.198 46.295 142.629 45.822 139.017 45.822C132.481 45.822 127.665 47.026 124.569 49.434C121.559 51.842 120.054 54.852 120.054 58.464C120.054 61.302 120.828 63.581 122.376 65.301C124.01 66.935 126.16 68.225 128.826 69.171C131.492 70.031 134.416 70.762 137.598 71.364C140.78 71.88 143.962 72.482 147.144 73.17C150.326 73.858 153.25 74.847 155.916 76.137C158.582 77.341 160.689 79.061 162.237 81.297C163.871 83.447 164.688 86.371 164.688 90.069C164.688 93.767 163.656 96.992 161.592 99.744C159.614 102.496 156.647 104.646 152.691 106.194C148.735 107.742 143.876 108.516 138.114 108.516Z" fill="white"/>
<g clip-path="url(#clip0_7806_107)">
<path d="M82.4121 40L56.0878 66.3243C65.2 75.4366 71.3296 87.5316 72.9167 100.995C73.163 100.803 73.4367 100.612 73.6556 100.393C79.2652 95.5219 82.4121 88.9545 82.4121 82.0587V40Z" fill="#6FC0C2"/>
<path d="M56.0878 66.3242L42.3236 80.0884C49.2194 86.9842 53.5156 96.5343 53.5156 107.069C53.5156 107.37 53.4882 107.644 53.4608 107.945C60.7123 107.754 67.6355 105.291 72.9168 100.995C71.3296 87.5315 65.2001 75.4365 56.0878 66.3242Z" fill="#B1D4D5"/>
<path d="M20.8153 49.4133C34.5248 50.8909 46.8386 57.0753 56.0877 66.3243L82.4121 40H44.2938C37.3706 40 30.4749 41.9429 25.0841 45.6644C25.0841 45.6644 25.0294 45.6644 25.0294 45.6918C24.8105 45.8286 24.6189 46.0201 24.4274 46.1569C23.1139 47.1421 21.9099 48.2093 20.8153 49.3859V49.4133Z" fill="#0095AC"/>
<path d="M33.6765 108H52.5304C52.8314 108 53.1324 107.972 53.4334 107.972C53.4334 107.699 53.4881 107.425 53.4881 107.124C53.4881 96.589 49.2193 87.0389 42.2962 80.1157L28.0394 94.3725C31.5147 97.8477 33.6765 102.691 33.6765 108Z" fill="#E3F3F1"/>
<path d="M20.0218 50.3435C19.7481 50.6718 19.4745 50.9728 19.2282 51.3012C19.1461 51.4107 19.064 51.5475 18.9819 51.6569C15.9445 55.871 14.4121 60.8513 14.4121 65.9137V68.9785C14.7131 68.9785 15.0141 68.9238 15.3151 68.9238C25.8503 68.9238 35.4004 73.1926 42.2962 80.1157L56.0604 66.3515C46.8387 57.0751 34.5248 50.8908 20.8153 49.4131C20.5417 49.7141 20.268 50.0151 20.0218 50.3435Z" fill="#6FC0C2"/>
<path d="M28.0395 94.3725L42.2962 80.1158C35.3731 73.1926 25.8503 68.9238 15.2878 68.9238C14.9868 68.9238 14.7131 68.9512 14.4121 68.9786V88.7355C19.7481 88.7355 24.5642 90.8973 28.0395 94.3725Z" fill="#B1D4D5"/>
<path d="M14.4121 88.7358V108L28.0395 94.3729C24.5642 90.8976 19.7208 88.7358 14.4121 88.7358Z" fill="#E3F3F1"/>
<path d="M28.0395 94.3726L14.4121 108H33.6765C33.6765 102.691 31.5147 97.8478 28.0395 94.3726Z" fill="white"/>
</g>
<rect x="658.794" y="41" width="179" height="66" rx="33" stroke="#B1D4D5" stroke-width="2"/>
<path d="M691.124 93.5V56.4H695.046V90.108H715.822V93.5H691.124ZM724.984 93.5V56.4H728.906V93.5H724.984ZM753.76 93.5L737.33 56.4H741.57L756.94 91.327H754.608L770.084 56.4H774.059L757.629 93.5H753.76ZM785.592 72.989H805.202V76.328H785.592V72.989ZM786.016 90.108H808.329V93.5H782.094V56.4H807.534V59.792H786.016V90.108Z" fill="#B1D4D5"/>
<defs>
<clipPath id="clip0_7806_107">
<rect width="68" height="68" fill="white" transform="translate(14.4121 40)"/>
</clipPath>
</defs>
</svg>
