<svg width="642" height="148" viewBox="0 0 642 148" fill="none" xmlns="http://www.w3.org/2000/svg">
<path d="M594.981 133.542C588.875 133.542 583.07 132.596 577.566 130.704C572.062 128.812 567.59 126.189 564.15 122.835L567.633 117.933C570.987 121.029 574.986 123.437 579.63 125.157C584.36 126.877 589.434 127.737 594.852 127.737C603.882 127.737 610.504 125.63 614.718 121.416C619.018 117.202 621.168 110.58 621.168 101.55V82.845L622.458 72.783L621.426 62.721V40.662H627.618V100.776C627.618 112.042 624.866 120.298 619.362 125.544C613.944 130.876 605.817 133.542 594.981 133.542ZM593.175 105.549C586.811 105.549 581.092 104.173 576.018 101.421C571.03 98.583 567.031 94.713 564.021 89.811C561.097 84.823 559.635 79.147 559.635 72.783C559.635 66.333 561.097 60.657 564.021 55.755C567.031 50.853 571.03 47.026 576.018 44.274C581.092 41.522 586.811 40.146 593.175 40.146C599.281 40.146 604.742 41.479 609.558 44.145C614.46 46.725 618.33 50.466 621.168 55.368C624.006 60.184 625.425 65.989 625.425 72.783C625.425 79.491 624.006 85.296 621.168 90.198C618.33 95.1 614.46 98.884 609.558 101.55C604.742 104.216 599.281 105.549 593.175 105.549ZM593.691 99.744C599.109 99.744 603.882 98.626 608.01 96.39C612.138 94.068 615.363 90.886 617.685 86.844C620.093 82.716 621.297 78.029 621.297 72.783C621.297 67.451 620.093 62.764 617.685 58.722C615.363 54.68 612.138 51.541 608.01 49.305C603.882 47.069 599.109 45.951 593.691 45.951C588.445 45.951 583.715 47.069 579.501 49.305C575.373 51.541 572.105 54.68 569.697 58.722C567.375 62.764 566.214 67.451 566.214 72.783C566.214 78.029 567.375 82.716 569.697 86.844C572.105 90.886 575.373 94.068 579.501 96.39C583.715 98.626 588.445 99.744 593.691 99.744Z" fill="#233B50"/>
<path d="M506.635 40.146C512.139 40.146 516.912 41.221 520.954 43.371C525.082 45.435 528.264 48.617 530.5 52.917C532.822 57.131 533.983 62.377 533.983 68.655V108H527.533V69.171C527.533 61.603 525.598 55.841 521.728 51.885C517.944 47.929 512.612 45.951 505.732 45.951C500.486 45.951 495.928 47.026 492.058 49.176C488.188 51.326 485.221 54.336 483.157 58.206C481.179 62.076 480.19 66.72 480.19 72.138V108H473.74V40.662H479.932V59.367L479.029 57.303C481.093 51.971 484.49 47.8 489.22 44.79C493.95 41.694 499.755 40.146 506.635 40.146Z" fill="#233B50"/>
<path d="M433.655 108V40.6621H440.105V108H433.655Z" fill="#233B50"/>
<path d="M382.63 108.516C377.04 108.516 371.794 107.699 366.892 106.065C362.076 104.431 358.335 102.367 355.669 99.873L358.636 94.713C361.216 96.949 364.656 98.884 368.956 100.518C373.256 102.066 377.9 102.84 382.888 102.84C389.94 102.84 395.014 101.679 398.11 99.357C401.206 97.035 402.754 93.982 402.754 90.198C402.754 87.446 401.937 85.296 400.303 83.748C398.755 82.114 396.648 80.867 393.982 80.007C391.316 79.147 388.392 78.459 385.21 77.943C382.028 77.341 378.846 76.696 375.664 76.008C372.482 75.32 369.558 74.331 366.892 73.041C364.226 71.751 362.076 69.988 360.442 67.752C358.894 65.43 358.12 62.377 358.12 58.593C358.12 55.153 359.066 52.057 360.958 49.305C362.85 46.553 365.688 44.36 369.472 42.726C373.256 41.006 377.986 40.146 383.662 40.146C387.876 40.146 392.09 40.748 396.304 41.952C400.604 43.156 404.087 44.747 406.753 46.725L403.786 51.885C400.948 49.735 397.766 48.187 394.24 47.241C390.714 46.295 387.145 45.822 383.533 45.822C376.997 45.822 372.181 47.026 369.085 49.434C366.075 51.842 364.57 54.852 364.57 58.464C364.57 61.302 365.344 63.581 366.892 65.301C368.526 66.935 370.676 68.225 373.342 69.171C376.008 70.031 378.932 70.762 382.114 71.364C385.296 71.88 388.478 72.482 391.66 73.17C394.842 73.858 397.766 74.847 400.432 76.137C403.098 77.341 405.205 79.061 406.753 81.297C408.387 83.447 409.204 86.371 409.204 90.069C409.204 93.767 408.172 96.992 406.108 99.744C404.13 102.496 401.163 104.646 397.207 106.194C393.251 107.742 388.392 108.516 382.63 108.516Z" fill="#233B50"/>
<path d="M305.249 40.146C310.753 40.146 315.526 41.221 319.568 43.371C323.696 45.435 326.878 48.617 329.114 52.917C331.436 57.131 332.597 62.377 332.597 68.655V108H326.147V69.171C326.147 61.603 324.212 55.841 320.342 51.885C316.558 47.929 311.226 45.951 304.346 45.951C299.1 45.951 294.542 47.026 290.672 49.176C286.802 51.326 283.835 54.336 281.771 58.206C279.793 62.076 278.804 66.72 278.804 72.138V108H272.354V40.662H278.546V59.367L277.643 57.303C279.707 51.971 283.104 47.8 287.834 44.79C292.564 41.694 298.369 40.146 305.249 40.146Z" fill="#233B50"/>
<path d="M216.281 108.516C209.487 108.516 203.467 107.054 198.221 104.13C193.061 101.206 188.976 97.164 185.966 92.004C183.042 86.844 181.58 80.953 181.58 74.331C181.58 67.623 182.956 61.732 185.708 56.658C188.546 51.498 192.416 47.456 197.318 44.532C202.22 41.608 207.724 40.146 213.83 40.146C219.936 40.146 225.397 41.565 230.213 44.403C235.115 47.241 238.942 51.24 241.694 56.4C244.532 61.474 245.951 67.365 245.951 74.073C245.951 74.331 245.908 74.632 245.822 74.976C245.822 75.234 245.822 75.535 245.822 75.879H186.353V70.848H242.339L239.759 73.299C239.845 68.053 238.727 63.366 236.405 59.238C234.169 55.024 231.116 51.756 227.246 49.434C223.376 47.026 218.904 45.822 213.83 45.822C208.842 45.822 204.37 47.026 200.414 49.434C196.544 51.756 193.491 55.024 191.255 59.238C189.019 63.366 187.901 68.096 187.901 73.428V74.589C187.901 80.093 189.105 84.995 191.513 89.295C194.007 93.509 197.404 96.82 201.704 99.228C206.004 101.55 210.906 102.711 216.41 102.711C220.71 102.711 224.709 101.937 228.407 100.389C232.191 98.841 235.373 96.476 237.953 93.294L241.694 97.551C238.77 101.163 235.072 103.915 230.6 105.807C226.214 107.613 221.441 108.516 216.281 108.516Z" fill="#233B50"/>
<path d="M137.908 108.516C132.318 108.516 127.072 107.699 122.17 106.065C117.354 104.431 113.613 102.367 110.947 99.873L113.914 94.713C116.494 96.949 119.934 98.884 124.234 100.518C128.534 102.066 133.178 102.84 138.166 102.84C145.218 102.84 150.292 101.679 153.388 99.357C156.484 97.035 158.032 93.982 158.032 90.198C158.032 87.446 157.215 85.296 155.581 83.748C154.033 82.114 151.926 80.867 149.26 80.007C146.594 79.147 143.67 78.459 140.488 77.943C137.306 77.341 134.124 76.696 130.942 76.008C127.76 75.32 124.836 74.331 122.17 73.041C119.504 71.751 117.354 69.988 115.72 67.752C114.172 65.43 113.398 62.377 113.398 58.593C113.398 55.153 114.344 52.057 116.236 49.305C118.128 46.553 120.966 44.36 124.75 42.726C128.534 41.006 133.264 40.146 138.94 40.146C143.154 40.146 147.368 40.748 151.582 41.952C155.882 43.156 159.365 44.747 162.031 46.725L159.064 51.885C156.226 49.735 153.044 48.187 149.518 47.241C145.992 46.295 142.423 45.822 138.811 45.822C132.275 45.822 127.459 47.026 124.363 49.434C121.353 51.842 119.848 54.852 119.848 58.464C119.848 61.302 120.622 63.581 122.17 65.301C123.804 66.935 125.954 68.225 128.62 69.171C131.286 70.031 134.21 70.762 137.392 71.364C140.574 71.88 143.756 72.482 146.938 73.17C150.12 73.858 153.044 74.847 155.71 76.137C158.376 77.341 160.483 79.061 162.031 81.297C163.665 83.447 164.482 86.371 164.482 90.069C164.482 93.767 163.45 96.992 161.386 99.744C159.408 102.496 156.441 104.646 152.485 106.194C148.529 107.742 143.67 108.516 137.908 108.516Z" fill="#233B50"/>
<g clip-path="url(#clip0_7803_51)">
<path d="M82.2061 40L55.8817 66.3243C64.994 75.4366 71.1236 87.5316 72.7107 100.995C72.957 100.803 73.2306 100.612 73.4495 100.393C79.0592 95.5219 82.2061 88.9545 82.2061 82.0587V40Z" fill="#6FC0C2"/>
<path d="M55.8817 66.3245L42.1176 80.0886C49.0133 86.9844 53.3095 96.5345 53.3095 107.07C53.3095 107.371 53.2821 107.644 53.2548 107.945C60.5063 107.754 67.4294 105.291 72.7107 100.995C71.1236 87.5317 64.994 75.4367 55.8817 66.3245Z" fill="#B1D4D5"/>
<path d="M20.6093 49.4133C34.3187 50.8909 46.6326 57.0753 55.8817 66.3243L82.206 40H44.0877C37.1646 40 30.2688 41.9429 24.8781 45.6644C24.8781 45.6644 24.8233 45.6644 24.8233 45.6918C24.6044 45.8286 24.4129 46.0201 24.2213 46.1569C22.9078 47.1421 21.7038 48.2093 20.6093 49.3859V49.4133Z" fill="#0095AC"/>
<path d="M33.4704 108H52.3243C52.6253 108 52.9263 107.973 53.2273 107.973C53.2273 107.699 53.2821 107.425 53.2821 107.124C53.2821 96.5892 49.0133 87.0391 42.0901 80.116L27.8334 94.3727C31.3086 97.848 33.4704 102.691 33.4704 108Z" fill="#E3F3F1"/>
<path d="M19.8157 50.3437C19.5421 50.6721 19.2684 50.9731 19.0222 51.3015C18.9401 51.4109 18.858 51.5477 18.7759 51.6572C15.7384 55.8713 14.2061 60.8516 14.2061 65.9139V68.9787C14.5071 68.9787 14.8081 68.924 15.1091 68.924C25.6443 68.924 35.1944 73.1928 42.0902 80.1159L55.8543 66.3518C46.6326 57.0753 34.3187 50.891 20.6093 49.4133C20.3356 49.7143 20.062 50.0153 19.8157 50.3437Z" fill="#6FC0C2"/>
<path d="M27.8334 94.3725L42.0902 80.1158C35.167 73.1926 25.6443 68.9238 15.0817 68.9238C14.7807 68.9238 14.5071 68.9512 14.2061 68.9786V88.7355C19.5421 88.7355 24.3582 90.8973 27.8334 94.3725Z" fill="#B1D4D5"/>
<path d="M14.2061 88.7356V108L27.8334 94.3726C24.3582 90.8974 19.5147 88.7356 14.2061 88.7356Z" fill="#E3F3F1"/>
<path d="M27.8334 94.3726L14.2061 108H33.4704C33.4704 102.691 31.3087 97.8478 27.8334 94.3726Z" fill="white"/>
</g>
<defs>
<clipPath id="clip0_7803_51">
<rect width="68" height="68" fill="white" transform="translate(14.2061 40)"/>
</clipPath>
</defs>
</svg>
